<?xml version="1.0" encoding="UTF-8" standalone="no"?>
<!-- Uploaded to: SVG Repo, www.svgrepo.com, Generator: SVG Repo Mixer Tools -->

<svg
   width="16"
   height="16"
   viewBox="0 0 0.64 0.64"
   id="svg2"
   version="1.1"
   inkscape:version="1.2.2 (732a01da63, 2022-12-09)"
   sodipodi:docname="DCTIA_16.svg"
   style="fill:none"
   inkscape:export-filename="DCTIA16.png"
   inkscape:export-xdpi="96"
   inkscape:export-ydpi="96"
   xmlns:inkscape="http://www.inkscape.org/namespaces/inkscape"
   xmlns:sodipodi="http://sodipodi.sourceforge.net/DTD/sodipodi-0.dtd"
   xmlns="http://www.w3.org/2000/svg"
   xmlns:svg="http://www.w3.org/2000/svg"
   xmlns:rdf="http://www.w3.org/1999/02/22-rdf-syntax-ns#"
   xmlns:cc="http://creativecommons.org/ns#"
   xmlns:dc="http://purl.org/dc/elements/1.1/">
  <metadata
     id="metadata26">
    <rdf:RDF>
      <cc:Work
         rdf:about="">
        <dc:format>image/svg+xml</dc:format>
        <dc:type
           rdf:resource="http://purl.org/dc/dcmitype/StillImage" />
      </cc:Work>
    </rdf:RDF>
  </metadata>
  <defs
     id="defs24" />
  <sodipodi:namedview
     pagecolor="#ffffff"
     bordercolor="#666666"
     borderopacity="1"
     objecttolerance="10"
     gridtolerance="10"
     guidetolerance="10"
     inkscape:pageopacity="0"
     inkscape:pageshadow="2"
     inkscape:window-width="2560"
     inkscape:window-height="1369"
     id="namedview22"
     showgrid="false"
     inkscape:zoom="13.350176"
     inkscape:cx="28.239328"
     inkscape:cy="23.145762"
     inkscape:window-x="-8"
     inkscape:window-y="-8"
     inkscape:window-maximized="1"
     inkscape:current-layer="svg2"
     inkscape:showpageshadow="2"
     inkscape:pagecheckerboard="0"
     inkscape:deskcolor="#d1d1d1" />
  <path
     d="M 0.57142857,0 H 0.06857143 C 0.03070057,0 0,0.03070057 0,0.06857143 v 0.32 c 0,0.037872 0.03070057,0.0685714 0.06857143,0.0685714 h 0.50285714 c 0.037872,0 0.0685714,-0.0306994 0.0685714,-0.0685714 v -0.32 C 0.64,0.03070057 0.60930067,0 0.57142857,0 Z"
     id="path4"
     inkscape:connector-curvature="0"
     style="fill:#cc0022;fill-opacity:1;stroke-width:0.333333" />
  <path
     d="M 0.5257143,0.13714286 H 0.4571429 c -0.006062,0 -0.0118767,-0.002408 -0.0161623,-0.006695 -0.004286,-0.004287 -0.006695,-0.0101003 -0.006695,-0.0161625 0,-0.006062 0.00241,-0.0118759 0.006695,-0.0161625 0.004286,-0.0042864 0.0101007,-0.0066946 0.0161623,-0.0066946 h 0.0685714 c 0.006062,0 0.0118767,0.0024083 0.0161623,0.0066946 0.004286,0.0042866 0.006695,0.01010034 0.006695,0.0161625 0,0.006062 -0.00241,0.0118759 -0.006695,0.0161625 -0.004286,0.004286 -0.0101007,0.006695 -0.0161623,0.006695 z"
     id="path8"
     inkscape:connector-curvature="0"
     style="fill:#e0e0e0;stroke-width:0.333333" />
  <path
     d="M 0.5257143,0.22857143 H 0.38857143 c -0.006062,0 -0.0118767,-0.002409 -0.0161623,-0.006695 -0.004286,-0.004286 -0.006695,-0.0101006 -0.006695,-0.0161623 0,-0.006062 0.00241,-0.0118766 0.006695,-0.0161623 0.004286,-0.004286 0.0101007,-0.006695 0.0161623,-0.006695 H 0.5257143 c 0.006062,0 0.0118767,0.002409 0.0161623,0.006695 0.004286,0.004286 0.006695,0.0101006 0.006695,0.0161623 0,0.006062 -0.00241,0.0118766 -0.006695,0.0161623 -0.004286,0.004286 -0.0101007,0.006695 -0.0161623,0.006695 z"
     id="path10"
     inkscape:connector-curvature="0"
     style="fill:#e0e0e0;stroke-width:0.333333" />
  <path
     d="M 0.5257143,0.32 H 0.4571429 C 0.4510809,0.32 0.4452662,0.317591 0.4409806,0.313305 0.4366946,0.309019 0.4342856,0.3032044 0.4342856,0.2971427 c 0,-0.006062 0.00241,-0.0118766 0.006695,-0.0161623 0.004286,-0.004286 0.0101006,-0.006695 0.0161623,-0.006695 h 0.0685714 c 0.006062,0 0.0118767,0.002409 0.0161623,0.006695 0.004286,0.004286 0.006695,0.0101006 0.006695,0.0161623 0,0.006062 -0.00241,0.0118766 -0.006695,0.0161623 C 0.53759097,0.31759086 0.53177597,0.32 0.5257143,0.32 Z"
     id="path12"
     inkscape:connector-curvature="0"
     style="fill:#e0e0e0;stroke-width:0.333333" />
  <path
     d="M 0.57142857,0.50285713 H 0.06857143 c -0.0181863,0 -0.03562766,0.007225 -0.04848732,0.0200847 C 0.00722446,0.53580113 0,0.55324343 0,0.57142857 0,0.5896137 0.00722446,0.607056 0.02008411,0.61991543 0.03294377,0.63277487 0.05038514,0.64 0.06857143,0.64 h 0.50285714 c 0.018185,0 0.0356274,-0.007225 0.0484869,-0.0200847 C 0.63277487,0.607056 0.64,0.5896137 0.64,0.57142857 0.64,0.55324343 0.63277487,0.53580113 0.61991543,0.5229417 0.607056,0.5100823 0.5896137,0.50285713 0.57142857,0.50285713 Z"
     id="path14"
     inkscape:connector-curvature="0"
     style="fill:#37474f;stroke-width:0.333333" />
  <path
     d="M 0.06857143,0 C 0.05038513,0 0.03294377,0.00722446 0.02008411,0.02008411 0.00722446,0.03294377 0,0.05038514 0,0.06857143 v 0.32 c 0,0.018185 0.00722446,0.0356274 0.02008411,0.0484869 0.01285966,0.0128593 0.03030103,0.0200847 0.04848732,0.0200847 H 0.32 V 0 Z"
     id="path16"
     inkscape:connector-curvature="0"
     style="fill:#2ca100;fill-opacity:1;stroke-width:0.333333" />
  <path
     d="m 0.06857143,0.50285713 c -0.0181863,0 -0.03562766,0.007225 -0.04848732,0.0200847 C 0.00722446,0.53580113 0,0.55324343 0,0.57142857 0,0.5896137 0.00722446,0.607056 0.02008411,0.61991543 0.03294377,0.63277487 0.05038514,0.64 0.06857143,0.64 H 0.32 V 0.50285713 Z"
     id="path20"
     inkscape:connector-curvature="0"
     style="fill:#455a64;stroke-width:0.333333" />
  <g
     id="g1487"
     transform="matrix(0.33333333,0,0,0.33333333,-0.00253323,-0.01234005)">
    <g
       id="g534"
       transform="matrix(0.00186839,0,0,0.00145501,0.06437848,0.38273368)">
      <rect
         x="49.974998"
         y="86.060997"
         style="fill:#57555c"
         width="353.09201"
         height="95.714996"
         id="rect528" />
      <rect
         x="49.974998"
         y="228.854"
         style="fill:#57555c"
         width="353.09201"
         height="95.705002"
         id="rect530" />
      <rect
         x="49.974998"
         y="371.647"
         style="fill:#57555c"
         width="353.09201"
         height="95.705002"
         id="rect532" />
    </g>
    <g
       id="g542"
       transform="matrix(0.00186839,0,0,0.00145501,0.06437848,0.38273368)">
      <rect
         x="226.511"
         y="86.060997"
         style="fill:#3c3a41"
         width="176.55099"
         height="95.714996"
         id="rect536" />
      <rect
         x="226.511"
         y="228.854"
         style="fill:#3c3a41"
         width="176.55099"
         height="95.705002"
         id="rect538" />
      <rect
         x="226.511"
         y="371.647"
         style="fill:#3c3a41"
         width="176.55099"
         height="95.705002"
         id="rect540" />
    </g>
    <rect
       x="0.1076"
       style="fill:#ffb74d;stroke-width:0.00164879"
       width="0.75999892"
       height="0.17601407"
       id="rect544"
       y="0.38273388" />
    <g
       id="g550"
       transform="matrix(0.00186839,0,0,0.00145501,0.06437848,0.38273368)">
      <rect
         x="59.708"
         y="43.965"
         style="fill:#ffffff"
         width="23.235001"
         height="24.177999"
         id="rect546" />
      <rect
         x="101.508"
         y="43.965"
         style="fill:#ffffff"
         width="23.235001"
         height="24.177999"
         id="rect548" />
    </g>
    <rect
       x="0.1076"
       y="0.61004555"
       style="fill:#ffb74d;stroke-width:0.00164879"
       width="0.75999892"
       height="0.17601407"
       id="rect552" />
    <g
       id="g558"
       transform="matrix(0.00186839,0,0,0.00145501,0.06437848,0.38273368)">
      <rect
         x="59.708"
         y="199.964"
         style="fill:#ffffff"
         width="23.235001"
         height="24.177999"
         id="rect554" />
      <rect
         x="101.508"
         y="199.964"
         style="fill:#ffffff"
         width="23.235001"
         height="24.177999"
         id="rect556" />
    </g>
    <rect
       x="0.1076"
       y="0.83734292"
       style="fill:#ffb74d;stroke-width:0.00164879"
       width="0.75999892"
       height="0.1760301"
       id="rect560" />
    <g
       id="g566"
       transform="matrix(0.00186839,0,0,0.00145501,0.06437848,0.38273368)">
      <rect
         x="59.708"
         y="360.85101"
         style="fill:#ffffff"
         width="23.235001"
         height="24.177999"
         id="rect562" />
      <rect
         x="101.508"
         y="360.85101"
         style="fill:#ffffff"
         width="23.235001"
         height="24.177999"
         id="rect564" />
    </g>
    <g
       id="g574"
       transform="matrix(0.00186839,0,0,0.00145501,0.06437848,0.38273368)">
      <rect
         x="226.511"
         style="fill:#ffa91e"
         width="203.38901"
         height="120.971"
         id="rect568"
         y="0" />
      <rect
         x="226.511"
         y="156.22701"
         style="fill:#ffa91e"
         width="203.38901"
         height="120.971"
         id="rect570" />
      <rect
         x="226.511"
         y="312.444"
         style="fill:#ffa91e"
         width="203.38901"
         height="120.982"
         id="rect572" />
    </g>
  </g>
</svg>
