<?xml version="1.0" encoding="UTF-8" standalone="no"?>
<!-- Uploaded to: SVG Repo, www.svgrepo.com, Generator: SVG Repo Mixer Tools -->

<svg
   width="48"
   height="48"
   viewBox="0 0 1.92 1.92"
   id="svg2"
   version="1.1"
   inkscape:version="1.2.2 (732a01da63, 2022-12-09)"
   sodipodi:docname="DCTIA_48.svg"
   style="fill:none"
   inkscape:export-filename="DCTIA48.png"
   inkscape:export-xdpi="96"
   inkscape:export-ydpi="96"
   xmlns:inkscape="http://www.inkscape.org/namespaces/inkscape"
   xmlns:sodipodi="http://sodipodi.sourceforge.net/DTD/sodipodi-0.dtd"
   xmlns="http://www.w3.org/2000/svg"
   xmlns:svg="http://www.w3.org/2000/svg"
   xmlns:rdf="http://www.w3.org/1999/02/22-rdf-syntax-ns#"
   xmlns:cc="http://creativecommons.org/ns#"
   xmlns:dc="http://purl.org/dc/elements/1.1/">
  <metadata
     id="metadata26">
    <rdf:RDF>
      <cc:Work
         rdf:about="">
        <dc:format>image/svg+xml</dc:format>
        <dc:type
           rdf:resource="http://purl.org/dc/dcmitype/StillImage" />
      </cc:Work>
    </rdf:RDF>
  </metadata>
  <defs
     id="defs24" />
  <sodipodi:namedview
     pagecolor="#ffffff"
     bordercolor="#666666"
     borderopacity="1"
     objecttolerance="10"
     gridtolerance="10"
     guidetolerance="10"
     inkscape:pageopacity="0"
     inkscape:pageshadow="2"
     inkscape:window-width="2560"
     inkscape:window-height="1369"
     id="namedview22"
     showgrid="false"
     inkscape:zoom="13.350176"
     inkscape:cx="28.239328"
     inkscape:cy="23.145762"
     inkscape:window-x="-8"
     inkscape:window-y="-8"
     inkscape:window-maximized="1"
     inkscape:current-layer="svg2"
     inkscape:showpageshadow="2"
     inkscape:pagecheckerboard="0"
     inkscape:deskcolor="#d1d1d1" />
  <path
     d="M 1.7142857,0 H 0.20571429 C 0.09210171,0 0,0.09210171 0,0.20571429 V 1.1657143 c 0,0.113616 0.09210171,0.2057143 0.20571429,0.2057143 H 1.7142857 C 1.8279017,1.3714286 1.92,1.2793303 1.92,1.1657143 V 0.20571429 C 1.92,0.09210171 1.827902,0 1.7142857,0 z"
     id="path4"
     inkscape:connector-curvature="0"
     style="fill:#cc0022;fill-opacity:1" />
  <path
     d="M 1.5771429,0.41142857 H 1.3714286 c -0.018185,0 -0.03563,-0.007225 -0.048487,-0.0200839 -0.012857,-0.0128599 -0.020085,-0.030301 -0.020085,-0.0484875 0,-0.0181865 0.00723,-0.0356277 0.020085,-0.0484875 0.012857,-0.0128592 0.030302,-0.0200839 0.048487,-0.0200839 h 0.2057143 c 0.018185,0 0.03563,0.007225 0.048487,0.0200839 0.012857,0.0128599 0.020085,0.030301 0.020085,0.0484875 0,0.0181865 -0.00723,0.0356277 -0.020085,0.0484875 -0.012857,0.0128592 -0.030302,0.0200839 -0.048487,0.0200839 z"
     id="path8"
     inkscape:connector-curvature="0"
     style="fill:#e0e0e0" />
  <path
     d="M 1.5771429,0.68571429 H 1.1657143 c -0.018185,0 -0.03563,-0.007227 -0.048487,-0.0200846 -0.012857,-0.0128571 -0.020085,-0.0303017 -0.020085,-0.0484869 0,-0.0181851 0.00723,-0.0356297 0.020085,-0.0484869 0.012857,-0.0128571 0.030302,-0.0200846 0.048487,-0.0200846 h 0.4114286 c 0.018185,0 0.03563,0.007227 0.048487,0.0200846 0.012857,0.0128571 0.020085,0.0303017 0.020085,0.0484869 0,0.0181851 -0.00723,0.0356297 -0.020085,0.0484869 -0.012857,0.0128571 -0.030302,0.0200846 -0.048487,0.0200846 z"
     id="path10"
     inkscape:connector-curvature="0"
     style="fill:#e0e0e0" />
  <path
     d="M 1.5771429,0.96 H 1.3714286 c -0.018185,0 -0.03563,-0.007227 -0.048487,-0.0200846 -0.012857,-0.0128571 -0.020085,-0.0303017 -0.020085,-0.0484869 0,-0.0181851 0.00723,-0.0356297 0.020085,-0.0484869 0.012857,-0.0128571 0.030302,-0.0200846 0.048487,-0.0200846 h 0.2057143 c 0.018185,0 0.03563,0.007227 0.048487,0.0200846 0.012857,0.0128572 0.020085,0.0303017 0.020085,0.0484869 0,0.0181851 -0.00723,0.0356297 -0.020085,0.0484869 C 1.6127729,0.95277257 1.5953279,0.96 1.5771429,0.96 z"
     id="path12"
     inkscape:connector-curvature="0"
     style="fill:#e0e0e0" />
  <path
     d="M 1.7142857,1.5085714 H 0.20571429 c -0.0545589,0 -0.10688298,0.021676 -0.14546195,0.060254 C 0.02167337,1.6074034 0,1.6597303 0,1.7142857 0,1.7688411 0.02167337,1.821168 0.06025234,1.8597463 0.09883131,1.8983246 0.15115543,1.92 0.20571429,1.92 H 1.7142857 c 0.054555,0 0.1068823,-0.021675 0.1454606,-0.060254 C 1.8983246,1.821168 1.92,1.7688411 1.92,1.7142857 1.92,1.6597303 1.8983246,1.6074034 1.8597463,1.5688251 1.821168,1.5302469 1.7688411,1.5085714 1.7142857,1.5085714 z"
     id="path14"
     inkscape:connector-curvature="0"
     style="fill:#37474f" />
  <path
     d="M 0.20571429,0 C 0.15115539,0 0.09883131,0.02167337 0.06025234,0.06025234 0.02167337,0.09883131 0,0.15115543 0,0.20571429 V 1.1657143 c 0,0.054555 0.02167337,0.1068823 0.06025234,0.1454606 0.03857897,0.038578 0.09090309,0.060254 0.14546195,0.060254 H 0.96 V 0 H 0.20571429 z"
     id="path16"
     inkscape:connector-curvature="0"
     style="fill:#2ca100;fill-opacity:1" />
  <path
     d="m 0.20571429,1.5085714 c -0.0545589,0 -0.10688298,0.021676 -0.14546195,0.060254 C 0.02167337,1.6074034 0,1.6597303 0,1.7142857 0,1.7688411 0.02167337,1.821168 0.06025234,1.8597463 0.09883131,1.8983246 0.15115543,1.92 0.20571429,1.92 H 0.96 V 1.5085714 H 0.20571429 z"
     id="path20"
     inkscape:connector-curvature="0"
     style="fill:#455a64" />
  <g
     id="g1487"
     transform="translate(-0.00759968,-0.03702015)">
    <g
       id="g534"
       transform="matrix(0.00186839,0,0,0.00145501,0.06437848,0.38273368)">
      <rect
         x="49.974998"
         y="86.060997"
         style="fill:#57555c"
         width="353.09201"
         height="95.714996"
         id="rect528" />
      <rect
         x="49.974998"
         y="228.854"
         style="fill:#57555c"
         width="353.09201"
         height="95.705002"
         id="rect530" />
      <rect
         x="49.974998"
         y="371.647"
         style="fill:#57555c"
         width="353.09201"
         height="95.705002"
         id="rect532" />
    </g>
    <g
       id="g542"
       transform="matrix(0.00186839,0,0,0.00145501,0.06437848,0.38273368)">
      <rect
         x="226.511"
         y="86.060997"
         style="fill:#3c3a41"
         width="176.55099"
         height="95.714996"
         id="rect536" />
      <rect
         x="226.511"
         y="228.854"
         style="fill:#3c3a41"
         width="176.55099"
         height="95.705002"
         id="rect538" />
      <rect
         x="226.511"
         y="371.647"
         style="fill:#3c3a41"
         width="176.55099"
         height="95.705002"
         id="rect540" />
    </g>
    <rect
       x="0.1076"
       style="fill:#ffb74d;stroke-width:0.00164879"
       width="0.75999892"
       height="0.17601407"
       id="rect544"
       y="0.38273388" />
    <g
       id="g550"
       transform="matrix(0.00186839,0,0,0.00145501,0.06437848,0.38273368)">
      <rect
         x="59.708"
         y="43.965"
         style="fill:#ffffff"
         width="23.235001"
         height="24.177999"
         id="rect546" />
      <rect
         x="101.508"
         y="43.965"
         style="fill:#ffffff"
         width="23.235001"
         height="24.177999"
         id="rect548" />
    </g>
    <rect
       x="0.1076"
       y="0.61004555"
       style="fill:#ffb74d;stroke-width:0.00164879"
       width="0.75999892"
       height="0.17601407"
       id="rect552" />
    <g
       id="g558"
       transform="matrix(0.00186839,0,0,0.00145501,0.06437848,0.38273368)">
      <rect
         x="59.708"
         y="199.964"
         style="fill:#ffffff"
         width="23.235001"
         height="24.177999"
         id="rect554" />
      <rect
         x="101.508"
         y="199.964"
         style="fill:#ffffff"
         width="23.235001"
         height="24.177999"
         id="rect556" />
    </g>
    <rect
       x="0.1076"
       y="0.83734292"
       style="fill:#ffb74d;stroke-width:0.00164879"
       width="0.75999892"
       height="0.1760301"
       id="rect560" />
    <g
       id="g566"
       transform="matrix(0.00186839,0,0,0.00145501,0.06437848,0.38273368)">
      <rect
         x="59.708"
         y="360.85101"
         style="fill:#ffffff"
         width="23.235001"
         height="24.177999"
         id="rect562" />
      <rect
         x="101.508"
         y="360.85101"
         style="fill:#ffffff"
         width="23.235001"
         height="24.177999"
         id="rect564" />
    </g>
    <g
       id="g574"
       transform="matrix(0.00186839,0,0,0.00145501,0.06437848,0.38273368)">
      <rect
         x="226.511"
         style="fill:#ffa91e"
         width="203.38901"
         height="120.971"
         id="rect568"
         y="0" />
      <rect
         x="226.511"
         y="156.22701"
         style="fill:#ffa91e"
         width="203.38901"
         height="120.971"
         id="rect570" />
      <rect
         x="226.511"
         y="312.444"
         style="fill:#ffa91e"
         width="203.38901"
         height="120.982"
         id="rect572" />
    </g>
  </g>
</svg>
