<?xml version="1.0" encoding="UTF-8" standalone="no"?>
<!-- Uploaded to: SVG Repo, www.svgrepo.com, Generator: SVG Repo Mixer Tools -->

<svg
   width="32"
   height="32"
   viewBox="0 0 1.28 1.28"
   id="svg2"
   version="1.1"
   inkscape:version="1.2.2 (732a01da63, 2022-12-09)"
   sodipodi:docname="DCTIA_32.svg"
   style="fill:none"
   inkscape:export-filename="DCTIA32.png"
   inkscape:export-xdpi="96"
   inkscape:export-ydpi="96"
   xmlns:inkscape="http://www.inkscape.org/namespaces/inkscape"
   xmlns:sodipodi="http://sodipodi.sourceforge.net/DTD/sodipodi-0.dtd"
   xmlns="http://www.w3.org/2000/svg"
   xmlns:svg="http://www.w3.org/2000/svg"
   xmlns:rdf="http://www.w3.org/1999/02/22-rdf-syntax-ns#"
   xmlns:cc="http://creativecommons.org/ns#"
   xmlns:dc="http://purl.org/dc/elements/1.1/">
  <metadata
     id="metadata26">
    <rdf:RDF>
      <cc:Work
         rdf:about="">
        <dc:format>image/svg+xml</dc:format>
        <dc:type
           rdf:resource="http://purl.org/dc/dcmitype/StillImage" />
      </cc:Work>
    </rdf:RDF>
  </metadata>
  <defs
     id="defs24" />
  <sodipodi:namedview
     pagecolor="#ffffff"
     bordercolor="#666666"
     borderopacity="1"
     objecttolerance="10"
     gridtolerance="10"
     guidetolerance="10"
     inkscape:pageopacity="0"
     inkscape:pageshadow="2"
     inkscape:window-width="2560"
     inkscape:window-height="1369"
     id="namedview22"
     showgrid="false"
     inkscape:zoom="13.350176"
     inkscape:cx="28.239328"
     inkscape:cy="23.070857"
     inkscape:window-x="-8"
     inkscape:window-y="-8"
     inkscape:window-maximized="1"
     inkscape:current-layer="svg2"
     inkscape:showpageshadow="2"
     inkscape:pagecheckerboard="0"
     inkscape:deskcolor="#d1d1d1" />
  <path
     d="M 1.1428571,0 H 0.13714286 C 0.06140114,0 0,0.06140114 0,0.13714286 v 0.64000001 c 0,0.075744 0.06140114,0.13714286 0.13714286,0.13714286 H 1.1428571 C 1.2186011,0.91428573 1.28,0.85288687 1.28,0.77714287 V 0.13714286 C 1.28,0.06140114 1.2186013,0 1.1428571,0 Z"
     id="path4"
     inkscape:connector-curvature="0"
     style="fill:#cc0022;fill-opacity:1;stroke-width:0.666667" />
  <path
     d="M 1.0514286,0.27428571 H 0.91428573 c -0.0121233,0 -0.0237533,-0.004817 -0.0323247,-0.0133893 -0.008571,-0.008573 -0.01339,-0.0202007 -0.01339,-0.032325 0,-0.0121243 0.00482,-0.0237518 0.01339,-0.032325 0.008571,-0.008573 0.0202013,-0.0133893 0.0323247,-0.0133893 H 1.0514286 c 0.012123,0 0.023753,0.004817 0.032325,0.0133893 0.00857,0.008573 0.01339,0.0202007 0.01339,0.032325 0,0.0121243 -0.00482,0.0237518 -0.01339,0.032325 -0.00857,0.008573 -0.020201,0.0133893 -0.032325,0.0133893 z"
     id="path8"
     inkscape:connector-curvature="0"
     style="fill:#e0e0e0;stroke-width:0.666667" />
  <path
     d="M 1.0514286,0.45714286 H 0.77714287 c -0.0121233,0 -0.0237533,-0.004818 -0.0323247,-0.0133897 -0.008571,-0.008571 -0.01339,-0.0202011 -0.01339,-0.0323246 0,-0.0121234 0.00482,-0.0237531 0.01339,-0.0323246 0.008571,-0.008571 0.0202013,-0.0133897 0.0323247,-0.0133897 H 1.0514286 c 0.012123,0 0.023753,0.004818 0.032325,0.0133897 0.00857,0.008571 0.01339,0.0202011 0.01339,0.0323246 0,0.0121234 -0.00482,0.0237531 -0.01339,0.0323246 -0.00857,0.008571 -0.020201,0.0133897 -0.032325,0.0133897 z"
     id="path10"
     inkscape:connector-curvature="0"
     style="fill:#e0e0e0;stroke-width:0.666667" />
  <path
     d="M 1.0514286,0.64 H 0.91428573 c -0.0121233,0 -0.0237533,-0.004818 -0.0323247,-0.0133897 -0.008571,-0.008571 -0.01339,-0.0202011 -0.01339,-0.0323246 0,-0.0121234 0.00482,-0.0237531 0.01339,-0.0323246 0.008571,-0.008571 0.0202014,-0.0133897 0.0323247,-0.0133897 H 1.0514286 c 0.012123,0 0.023753,0.004818 0.032325,0.0133897 0.00857,0.008571 0.01339,0.0202011 0.01339,0.0323246 0,0.0121234 -0.00482,0.0237531 -0.01339,0.0323246 C 1.0751819,0.63518171 1.0635519,0.64 1.0514286,0.64 Z"
     id="path12"
     inkscape:connector-curvature="0"
     style="fill:#e0e0e0;stroke-width:0.666667" />
  <path
     d="M 1.1428571,1.0057143 H 0.13714286 c -0.0363726,0 -0.07125532,0.014451 -0.09697463,0.040169 C 0.01444891,1.0716023 0,1.1064869 0,1.1428571 0,1.1792274 0.01444891,1.214112 0.04016823,1.2398309 0.06588754,1.2655497 0.10077029,1.28 0.13714286,1.28 H 1.1428571 c 0.03637,0 0.071255,-0.01445 0.096974,-0.040169 C 1.2655497,1.214112 1.28,1.1792274 1.28,1.1428571 1.28,1.1064871 1.26555,1.0716021 1.239831,1.0458831 1.214112,1.0201641 1.179227,1.0057141 1.1428571,1.0057143 Z"
     id="path14"
     inkscape:connector-curvature="0"
     style="fill:#37474f;stroke-width:0.666667" />
  <path
     d="M 0.13714286,0 C 0.10077026,0 0.06588754,0.01444891 0.04016823,0.04016823 0.01444891,0.06588754 0,0.10077029 0,0.13714286 v 0.64000001 c 0,0.03637 0.01444891,0.0712549 0.04016823,0.0969737 0.02571931,0.0257187 0.06060206,0.0401693 0.09697463,0.0401693 H 0.64 V 0 Z"
     id="path16"
     inkscape:connector-curvature="0"
     style="fill:#2ca100;fill-opacity:1;stroke-width:0.666667" />
  <path
     d="m 0.13714286,1.0057143 c -0.0363726,0 -0.07125532,0.014451 -0.09697463,0.040169 C 0.01444891,1.0716023 0,1.1064869 0,1.1428571 0,1.1792274 0.01444891,1.214112 0.04016823,1.2398309 0.06588754,1.2655497 0.10077029,1.28 0.13714286,1.28 H 0.64 V 1.0057143 Z"
     id="path20"
     inkscape:connector-curvature="0"
     style="fill:#455a64;stroke-width:0.666667" />
  <g
     id="g1487"
     transform="matrix(0.66666667,0,0,0.66666667,-0.00506645,-0.0246801)">
    <g
       id="g534"
       transform="matrix(0.00186839,0,0,0.00145501,0.06437848,0.38273368)">
      <rect
         x="49.974998"
         y="86.060997"
         style="fill:#57555c"
         width="353.09201"
         height="95.714996"
         id="rect528" />
      <rect
         x="49.974998"
         y="228.854"
         style="fill:#57555c"
         width="353.09201"
         height="95.705002"
         id="rect530" />
      <rect
         x="49.974998"
         y="371.647"
         style="fill:#57555c"
         width="353.09201"
         height="95.705002"
         id="rect532" />
    </g>
    <g
       id="g542"
       transform="matrix(0.00186839,0,0,0.00145501,0.06437848,0.38273368)">
      <rect
         x="226.511"
         y="86.060997"
         style="fill:#3c3a41"
         width="176.55099"
         height="95.714996"
         id="rect536" />
      <rect
         x="226.511"
         y="228.854"
         style="fill:#3c3a41"
         width="176.55099"
         height="95.705002"
         id="rect538" />
      <rect
         x="226.511"
         y="371.647"
         style="fill:#3c3a41"
         width="176.55099"
         height="95.705002"
         id="rect540" />
    </g>
    <rect
       x="0.1076"
       style="fill:#ffb74d;stroke-width:0.00164879"
       width="0.75999892"
       height="0.17601407"
       id="rect544"
       y="0.38273388" />
    <g
       id="g550"
       transform="matrix(0.00186839,0,0,0.00145501,0.06437848,0.38273368)">
      <rect
         x="59.708"
         y="43.965"
         style="fill:#ffffff"
         width="23.235001"
         height="24.177999"
         id="rect546" />
      <rect
         x="101.508"
         y="43.965"
         style="fill:#ffffff"
         width="23.235001"
         height="24.177999"
         id="rect548" />
    </g>
    <rect
       x="0.1076"
       y="0.61004555"
       style="fill:#ffb74d;stroke-width:0.00164879"
       width="0.75999892"
       height="0.17601407"
       id="rect552" />
    <g
       id="g558"
       transform="matrix(0.00186839,0,0,0.00145501,0.06437848,0.38273368)">
      <rect
         x="59.708"
         y="199.964"
         style="fill:#ffffff"
         width="23.235001"
         height="24.177999"
         id="rect554" />
      <rect
         x="101.508"
         y="199.964"
         style="fill:#ffffff"
         width="23.235001"
         height="24.177999"
         id="rect556" />
    </g>
    <rect
       x="0.1076"
       y="0.83734292"
       style="fill:#ffb74d;stroke-width:0.00164879"
       width="0.75999892"
       height="0.1760301"
       id="rect560" />
    <g
       id="g566"
       transform="matrix(0.00186839,0,0,0.00145501,0.06437848,0.38273368)">
      <rect
         x="59.708"
         y="360.85101"
         style="fill:#ffffff"
         width="23.235001"
         height="24.177999"
         id="rect562" />
      <rect
         x="101.508"
         y="360.85101"
         style="fill:#ffffff"
         width="23.235001"
         height="24.177999"
         id="rect564" />
    </g>
    <g
       id="g574"
       transform="matrix(0.00186839,0,0,0.00145501,0.06437848,0.38273368)">
      <rect
         x="226.511"
         style="fill:#ffa91e"
         width="203.38901"
         height="120.971"
         id="rect568"
         y="0" />
      <rect
         x="226.511"
         y="156.22701"
         style="fill:#ffa91e"
         width="203.38901"
         height="120.971"
         id="rect570" />
      <rect
         x="226.511"
         y="312.444"
         style="fill:#ffa91e"
         width="203.38901"
         height="120.982"
         id="rect572" />
    </g>
  </g>
</svg>
